<svg width="380" height="300" viewBox="0 0 380 300" fill="none" xmlns="http://www.w3.org/2000/svg">
<path d="M143.07 180.371C179.655 175.56 218.949 176.146 252.899 181.632" stroke="#474319" stroke-width="24" stroke-linecap="round" stroke-linejoin="round"/>
<path d="M167.329 196.283C170.191 191.289 167.187 186.968 166.51 182.329" stroke="#474319" stroke-width="24" stroke-linecap="round" stroke-linejoin="round"/>
<path d="M223.779 194.623C223.779 190.415 223.779 186.206 223.779 182.004" stroke="#474319" stroke-width="24" stroke-linecap="round" stroke-linejoin="round"/>
<path d="M144.367 104.093C145.925 96.4929 143.569 87.3939 142.915 80.8839" stroke="#474319" stroke-width="24" stroke-linecap="round" stroke-linejoin="round"/>
<path d="M192.238 114.116C192.469 98.215 192.238 82.169 192.238 66.178" stroke="#474319" stroke-width="24" stroke-linecap="round" stroke-linejoin="round"/>
<path d="M235.431 97.461C234.942 88.613 234.707 79.809 234.707 70.937" stroke="#474319" stroke-width="24" stroke-linecap="round" stroke-linejoin="round"/>
<path d="M44.2137 82.627C-21.2135 24.309 61.6697 22.186 96.0387 75.873" stroke="#474319" stroke-width="24" stroke-linecap="round" stroke-linejoin="round"/>
<path d="M287.656 64.0109C312.156 -8.35005 371.871 22.1479 323.369 86.3619" stroke="#474319" stroke-width="24" stroke-linecap="round" stroke-linejoin="round"/>
<path d="M196.972 228.606C223.697 220.257 212.376 251.14 194.085 227.191" stroke="#474319" stroke-width="24" stroke-linecap="round" stroke-linejoin="round"/>
<path d="M202.146 246.367C192.34 259.918 186.636 261.766 177.996 265.044" stroke="#474319" stroke-width="24" stroke-linecap="round" stroke-linejoin="round"/>
<path d="M207.634 250.126C211.947 259.892 219.027 259.271 225.939 261.73" stroke="#474319" stroke-width="24" stroke-linecap="round" stroke-linejoin="round"/>
<path d="M81.5006 201.898C62.1306 199.77 36.6766 198.939 19.9302 196.925" stroke="#474319" stroke-width="24" stroke-linecap="round" stroke-linejoin="round"/>
<path d="M82.8717 239.01C65.6367 245.015 48.6467 251.666 31.2847 257.244" stroke="#474319" stroke-width="24" stroke-linecap="round" stroke-linejoin="round"/>
<path d="M353.491 182.11C336.089 186.248 319.654 194.132 303.569 202.003" stroke="#474319" stroke-width="24" stroke-linecap="round" stroke-linejoin="round"/>
<path d="M358.291 236.911C342.413 235.684 326.181 234.906 303.569 236.38" stroke="#474319" stroke-width="24" stroke-linecap="round" stroke-linejoin="round"/>
</svg>
