<svg width="400" height="300" viewBox="0 0 400 300" fill="none" xmlns="http://www.w3.org/2000/svg">
<path d="M69.5746 72.6271C42.3656 16.0761 81.7246 3.64512 113.759 47.3701" stroke="#474319" stroke-width="24" stroke-linecap="round" stroke-linejoin="round"/>
<path d="M300.475 45.9081C342.461 -6.94488 351.026 43.0021 337.602 86.7191" stroke="#474319" stroke-width="24" stroke-linecap="round" stroke-linejoin="round"/>
<path d="M161.755 78.1181C162.194 71.2301 162.637 64.3561 163.076 57.4841" stroke="#474319" stroke-width="24" stroke-linecap="round" stroke-linejoin="round"/>
<path d="M207.555 86.7041C207.08 73.5061 208.679 60.2811 210.2 47.1841" stroke="#474319" stroke-width="24" stroke-linecap="round" stroke-linejoin="round"/>
<path d="M251.143 78.1131C253.423 71.4891 252.025 64.3621 252.469 57.4901" stroke="#474319" stroke-width="24" stroke-linecap="round" stroke-linejoin="round"/>
<path d="M148.411 143.175C202.884 142.424 191.909 158.271 145.412 175.796" stroke="#474319" stroke-width="24" stroke-linecap="round" stroke-linejoin="round"/>
<path d="M246.469 141.691C200.944 161.67 210.163 153.298 244.944 176.057" stroke="#474319" stroke-width="24" stroke-linecap="round" stroke-linejoin="round"/>
<path d="M191.997 217.296C169.465 218.545 190.189 242.744 209.696 218.776" stroke="#474319" stroke-width="24" stroke-linecap="round" stroke-linejoin="round"/>
<path d="M187.346 260.001C171.967 266.699 164.073 263.809 152.961 255.099" stroke="#474319" stroke-width="24" stroke-linecap="round" stroke-linejoin="round"/>
<path d="M192.503 255.099C204.673 274.346 223.982 267.571 238.924 255.099" stroke="#474319" stroke-width="24" stroke-linecap="round" stroke-linejoin="round"/>
<path d="M75.5938 186.367C58.8608 186.158 31.4198 180.952 20.5767 179.493" stroke="#474319" stroke-width="24" stroke-linecap="round" stroke-linejoin="round"/>
<path d="M79.0317 220.38C57.9097 221.386 39.3487 226.075 22.2959 234.119" stroke="#474319" stroke-width="24" stroke-linecap="round" stroke-linejoin="round"/>
<path d="M373.027 163.684C350.636 166.087 332.068 171.64 314.572 182.947" stroke="#474319" stroke-width="24" stroke-linecap="round" stroke-linejoin="round"/>
<path d="M371.65 227.823C353.565 223.071 335.361 222.668 316.634 222.668" stroke="#474319" stroke-width="24" stroke-linecap="round" stroke-linejoin="round"/>
</svg>
