<svg width="1440" height="1024" viewBox="0 0 1440 1024" fill="none" xmlns="http://www.w3.org/2000/svg">
<g opacity="0.2" clip-path="url(#clip0_1007_409)">
<path d="M84.0204 153.398C90.725 91.0009 130.722 101.195 134.881 155.239" stroke="#474319" stroke-width="24" stroke-linecap="round" stroke-linejoin="round"/>
<path d="M294.294 252.463C357.839 229.698 338.777 276.652 304.317 306.717" stroke="#474319" stroke-width="24" stroke-linecap="round" stroke-linejoin="round"/>
<path d="M159.445 206.675C163.45 201.054 167.452 195.447 171.449 189.84" stroke="#474319" stroke-width="24" stroke-linecap="round" stroke-linejoin="round"/>
<path d="M193.831 238.123C200.387 226.659 208.72 216.266 216.919 205.94" stroke="#474319" stroke-width="24" stroke-linecap="round" stroke-linejoin="round"/>
<path d="M235.396 253.81C240.826 249.384 243.397 242.592 247.398 236.987" stroke="#474319" stroke-width="24" stroke-linecap="round" stroke-linejoin="round"/>
<path d="M113.799 254.913C160.478 283.002 142.796 290.678 94.0481 281.048" stroke="#474319" stroke-width="24" stroke-linecap="round" stroke-linejoin="round"/>
<path d="M197.896 305.364C148.68 298.331 160.928 296.08 178.477 333.759" stroke="#474319" stroke-width="24" stroke-linecap="round" stroke-linejoin="round"/>
<path d="M111.744 340.875C91.9407 330.054 96.7872 361.543 126.001 351.466" stroke="#474319" stroke-width="24" stroke-linecap="round" stroke-linejoin="round"/>
<path d="M85.2711 374.707C68.6722 372.287 63.4892 365.669 58.6412 352.408" stroke="#474319" stroke-width="24" stroke-linecap="round" stroke-linejoin="round"/>
<path d="M92.2378 373.261C92.428 396.032 112.407 400.459 131.679 397.741" stroke="#474319" stroke-width="24" stroke-linecap="round" stroke-linejoin="round"/>
<path d="M29.153 253.211C15.0461 244.209 -5.52359 225.314 -13.967 218.357" stroke="#474319" stroke-width="24" stroke-linecap="round" stroke-linejoin="round"/>
<path d="M14.1371 283.923C-4.33962 273.639 -22.5826 267.834 -41.3135 265.676" stroke="#474319" stroke-width="24" stroke-linecap="round" stroke-linejoin="round"/>
<path d="M293.827 390.791C273.536 381.025 254.831 375.951 234.003 376.331" stroke="#474319" stroke-width="24" stroke-linecap="round" stroke-linejoin="round"/>
<path d="M258.833 444.56C245.973 430.986 230.719 421.043 214.808 411.167" stroke="#474319" stroke-width="24" stroke-linecap="round" stroke-linejoin="round"/>
</g>
<g opacity="0.2" clip-path="url(#clip1_1007_409)">
<path d="M477.482 801.379C424.011 768.529 450.393 736.785 500.986 756.238" stroke="#474319" stroke-width="24" stroke-linecap="round" stroke-linejoin="round"/>
<path d="M657.245 654.022C663.975 586.858 698.193 624.237 710.546 668.269" stroke="#474319" stroke-width="24" stroke-linecap="round" stroke-linejoin="round"/>
<path d="M557.986 756.142C554.63 750.111 551.285 744.089 547.937 738.072" stroke="#474319" stroke-width="24" stroke-linecap="round" stroke-linejoin="round"/>
<path d="M601.153 738.593C593.616 727.748 587.808 715.76 582.004 703.921" stroke="#474319" stroke-width="24" stroke-linecap="round" stroke-linejoin="round"/>
<path d="M633.169 707.792C631.505 700.987 626.474 695.749 623.131 689.728" stroke="#474319" stroke-width="24" stroke-linecap="round" stroke-linejoin="round"/>
<path d="M581.949 818.079C627.361 787.986 626.7 807.251 597.069 847.14" stroke="#474319" stroke-width="24" stroke-linecap="round" stroke-linejoin="round"/>
<path d="M663.624 763.796C636.138 805.223 639.364 793.195 680.929 793.527" stroke="#474319" stroke-width="24" stroke-linecap="round" stroke-linejoin="round"/>
<path d="M658.698 856.85C640.421 870.087 670.941 879.233 674.385 848.523" stroke="#474319" stroke-width="24" stroke-linecap="round" stroke-linejoin="round"/>
<path d="M677.883 895.286C668.57 909.237 660.367 911.076 646.31 909.76" stroke="#474319" stroke-width="24" stroke-linecap="round" stroke-linejoin="round"/>
<path d="M679.569 888.374C700.216 897.98 712.793 881.838 718.615 863.267" stroke="#474319" stroke-width="24" stroke-linecap="round" stroke-linejoin="round"/>
<path d="M544.061 893.792C529.874 902.666 503.977 913.129 494.068 917.766" stroke="#474319" stroke-width="24" stroke-linecap="round" stroke-linejoin="round"/>
<path d="M565.349 920.542C548.127 932.812 535.051 946.794 525.058 962.783" stroke="#474319" stroke-width="24" stroke-linecap="round" stroke-linejoin="round"/>
<path d="M781.969 713.846C764.436 727.977 751.821 742.691 743.22 761.664" stroke="#474319" stroke-width="24" stroke-linecap="round" stroke-linejoin="round"/>
<path d="M815.501 768.539C797.719 774.323 782.189 783.83 766.438 793.959" stroke="#474319" stroke-width="24" stroke-linecap="round" stroke-linejoin="round"/>
</g>
<g opacity="0.2" clip-path="url(#clip2_1007_409)">
<path d="M1054.29 161.394C1007.69 94.4236 1055.65 70.3473 1105.79 119.86" stroke="#474319" stroke-width="30" stroke-linecap="round" stroke-linejoin="round"/>
<path d="M1345.14 79.4588C1388.12 2.95791 1409.42 65.2988 1401.21 124.18" stroke="#474319" stroke-width="30" stroke-linecap="round" stroke-linejoin="round"/>
<path d="M1173.73 149.423C1172.88 140.491 1172.03 131.577 1171.17 122.666" stroke="#474319" stroke-width="30" stroke-linecap="round" stroke-linejoin="round"/>
<path d="M1234.29 150.993C1230.96 134.151 1230.28 116.847 1229.53 99.7227" stroke="#474319" stroke-width="30" stroke-linecap="round" stroke-linejoin="round"/>
<path d="M1288.46 130.973C1290.02 122.001 1286.76 113.141 1285.91 104.229" stroke="#474319" stroke-width="30" stroke-linecap="round" stroke-linejoin="round"/>
<path d="M1170.03 235.678C1239.79 223.475 1228.98 246.079 1172.91 278.167" stroke="#474319" stroke-width="30" stroke-linecap="round" stroke-linejoin="round"/>
<path d="M1295.58 213.541C1241.27 248.578 1251.38 235.93 1300.72 257.965" stroke="#474319" stroke-width="30" stroke-linecap="round" stroke-linejoin="round"/>
<path d="M1241.27 321.821C1212.6 328.073 1244.2 354.857 1264.29 320.069" stroke="#474319" stroke-width="30" stroke-linecap="round" stroke-linejoin="round"/>
<path d="M1244.11 377.594C1225.75 389.364 1215.02 387.283 1198.96 378.396" stroke="#474319" stroke-width="30" stroke-linecap="round" stroke-linejoin="round"/>
<path d="M1249.72 370.238C1269.31 392.431 1292.69 379.751 1309.3 360.66" stroke="#474319" stroke-width="30" stroke-linecap="round" stroke-linejoin="round"/>
<path d="M1085.48 306.14C1063.96 309.324 1027.66 308.304 1013.45 308.669" stroke="#474319" stroke-width="30" stroke-linecap="round" stroke-linejoin="round"/>
<path d="M1096.91 349.087C1070.01 354.736 1047.15 364.584 1026.92 378.428" stroke="#474319" stroke-width="30" stroke-linecap="round" stroke-linejoin="round"/>
<path d="M1462.56 215.657C1434.32 223.362 1411.63 234.32 1391.51 252.443" stroke="#474319" stroke-width="30" stroke-linecap="round" stroke-linejoin="round"/>
<path d="M1474.03 298.265C1449.83 295.898 1426.39 299.136 1402.35 303" stroke="#474319" stroke-width="30" stroke-linecap="round" stroke-linejoin="round"/>
</g>
<g opacity="0.2" clip-path="url(#clip3_1007_409)">
<path d="M493.131 264.69C476.864 283.809 465.936 271.432 476.731 252.629" stroke="#474319" stroke-width="10" stroke-linecap="round" stroke-linejoin="round"/>
<path d="M445.924 184.59C419.79 177.807 436.665 166.577 454.827 164.397" stroke="#474319" stroke-width="10" stroke-linecap="round" stroke-linejoin="round"/>
<path d="M480.193 230.093C477.603 231.049 475.018 232.002 472.434 232.956" stroke="#474319" stroke-width="10" stroke-linecap="round" stroke-linejoin="round"/>
<path d="M475.907 211.953C471.158 214.267 466.063 215.827 461.027 217.394" stroke="#474319" stroke-width="10" stroke-linecap="round" stroke-linejoin="round"/>
<path d="M465.698 197.408C462.907 197.648 460.527 199.315 457.942 200.266" stroke="#474319" stroke-width="10" stroke-linecap="round" stroke-linejoin="round"/>
<path d="M506.146 224.424C497.039 204.627 504.613 206.071 518.56 220.232" stroke="#474319" stroke-width="10" stroke-linecap="round" stroke-linejoin="round"/>
<path d="M489.705 188.809C504.391 202.216 499.835 200.203 502.518 183.794" stroke="#474319" stroke-width="10" stroke-linecap="round" stroke-linejoin="round"/>
<path d="M526.183 196.469C530.293 204.506 535.781 193.004 523.854 189.757" stroke="#474319" stroke-width="10" stroke-linecap="round" stroke-linejoin="round"/>
<path d="M542.553 191.246C547.495 195.783 547.718 199.138 546.335 204.614" stroke="#474319" stroke-width="10" stroke-linecap="round" stroke-linejoin="round"/>
<path d="M539.924 190.155C544.989 182.584 539.381 176.622 532.397 173.18" stroke="#474319" stroke-width="10" stroke-linecap="round" stroke-linejoin="round"/>
<path d="M533.746 244.048C536.382 250.201 538.928 261.079 540.153 265.281" stroke="#474319" stroke-width="10" stroke-linecap="round" stroke-linejoin="round"/>
<path d="M545.626 237.276C549.418 244.837 554.142 250.864 559.849 255.795" stroke="#474319" stroke-width="10" stroke-linecap="round" stroke-linejoin="round"/>
<path d="M477.227 138.965C481.736 146.763 486.777 152.652 493.749 157.217" stroke="#474319" stroke-width="10" stroke-linecap="round" stroke-linejoin="round"/>
<path d="M500.904 129.069C502.098 136.453 504.903 143.174 507.939 150.022" stroke="#474319" stroke-width="10" stroke-linecap="round" stroke-linejoin="round"/>
</g>
<g opacity="0.2" clip-path="url(#clip4_1007_409)">
<path d="M800.699 390.37C825.442 394.602 820.375 410.315 798.696 410.629" stroke="#474319" stroke-width="10" stroke-linecap="round" stroke-linejoin="round"/>
<path d="M755.908 471.846C763.412 497.783 745.143 489.002 733.999 474.495" stroke="#474319" stroke-width="10" stroke-linecap="round" stroke-linejoin="round"/>
<path d="M777.549 419.153C779.693 420.892 781.832 422.629 783.971 424.365" stroke="#474319" stroke-width="10" stroke-linecap="round" stroke-linejoin="round"/>
<path d="M764.137 432.097C768.551 435 772.492 438.586 776.41 442.116" stroke="#474319" stroke-width="10" stroke-linecap="round" stroke-linejoin="round"/>
<path d="M756.839 448.299C758.47 450.577 761.118 451.773 763.255 453.51" stroke="#474319" stroke-width="10" stroke-linecap="round" stroke-linejoin="round"/>
<path d="M759.429 399.728C747.052 417.663 744.428 410.412 749.488 391.191" stroke="#474319" stroke-width="10" stroke-linecap="round" stroke-linejoin="round"/>
<path d="M737.192 432.043C741.226 412.571 741.82 417.516 726.34 423.583" stroke="#474319" stroke-width="10" stroke-linecap="round" stroke-linejoin="round"/>
<path d="M725.163 396.764C729.976 389.128 717.284 390.278 720.579 402.192" stroke="#474319" stroke-width="10" stroke-linecap="round" stroke-linejoin="round"/>
<path d="M712.316 385.353C713.696 378.786 716.467 376.882 721.882 375.277" stroke="#474319" stroke-width="10" stroke-linecap="round" stroke-linejoin="round"/>
<path d="M712.72 388.17C703.624 387.678 701.359 395.544 701.963 403.305" stroke="#474319" stroke-width="10" stroke-linecap="round" stroke-linejoin="round"/>
<path d="M762.219 365.977C766.164 360.57 774.22 352.829 777.208 349.632" stroke="#474319" stroke-width="10" stroke-linecap="round" stroke-linejoin="round"/>
<path d="M750.332 359.217C754.899 352.097 757.671 344.959 758.999 337.535" stroke="#474319" stroke-width="10" stroke-linecap="round" stroke-linejoin="round"/>
<path d="M700.696 468.212C705.101 460.354 707.593 453.014 707.96 444.689" stroke="#474319" stroke-width="10" stroke-linecap="round" stroke-linejoin="round"/>
<path d="M680.103 452.901C685.842 448.106 690.192 442.264 694.531 436.158" stroke="#474319" stroke-width="10" stroke-linecap="round" stroke-linejoin="round"/>
</g>
<g opacity="0.2" clip-path="url(#clip5_1007_409)">
<path d="M197.357 635.523C212.969 615.866 224.308 627.866 214.154 647.023" stroke="#474319" stroke-width="10" stroke-linecap="round" stroke-linejoin="round"/>
<path d="M247.244 713.982C273.592 719.879 257.106 731.673 239.028 734.465" stroke="#474319" stroke-width="10" stroke-linecap="round" stroke-linejoin="round"/>
<path d="M211.456 669.663C214.012 668.62 216.564 667.581 219.114 666.54" stroke="#474319" stroke-width="10" stroke-linecap="round" stroke-linejoin="round"/>
<path d="M216.353 687.648C221.021 685.175 226.061 683.444 231.041 681.708" stroke="#474319" stroke-width="10" stroke-linecap="round" stroke-linejoin="round"/>
<path d="M227.047 701.84C229.829 701.506 232.151 699.76 234.702 698.721" stroke="#474319" stroke-width="10" stroke-linecap="round" stroke-linejoin="round"/>
<path d="M185.71 676.206C195.48 695.684 187.862 694.497 173.444 680.815" stroke="#474319" stroke-width="10" stroke-linecap="round" stroke-linejoin="round"/>
<path d="M203.345 711.246C188.214 698.342 192.835 700.201 190.708 716.69" stroke="#474319" stroke-width="10" stroke-linecap="round" stroke-linejoin="round"/>
<path d="M166.629 704.822C162.25 696.929 157.153 708.61 169.183 711.452" stroke="#474319" stroke-width="10" stroke-linecap="round" stroke-linejoin="round"/>
<path d="M150.445 710.596C145.352 706.228 145.016 702.882 146.213 697.363" stroke="#474319" stroke-width="10" stroke-linecap="round" stroke-linejoin="round"/>
<path d="M153.109 711.597C148.303 719.335 154.109 725.104 161.205 728.308" stroke="#474319" stroke-width="10" stroke-linecap="round" stroke-linejoin="round"/>
<path d="M157.462 657.526C154.62 651.466 151.708 640.68 150.342 636.522" stroke="#474319" stroke-width="10" stroke-linecap="round" stroke-linejoin="round"/>
<path d="M145.818 664.695C141.772 657.267 136.847 651.403 130.978 646.667" stroke="#474319" stroke-width="10" stroke-linecap="round" stroke-linejoin="round"/>
<path d="M217.5 760.64C212.73 752.998 207.493 747.283 200.371 742.956" stroke="#474319" stroke-width="10" stroke-linecap="round" stroke-linejoin="round"/>
<path d="M194.171 771.33C192.728 763.991 189.698 757.367 186.432 750.626" stroke="#474319" stroke-width="10" stroke-linecap="round" stroke-linejoin="round"/>
</g>
<g opacity="0.2" clip-path="url(#clip6_1007_409)">
<path d="M1269.2 728.178C1282.18 749.665 1266.98 756.107 1252.56 739.911" stroke="#474319" stroke-width="10" stroke-linecap="round" stroke-linejoin="round"/>
<path d="M1178.27 747.574C1163.55 770.213 1158.25 750.649 1161.94 732.732" stroke="#474319" stroke-width="10" stroke-linecap="round" stroke-linejoin="round"/>
<path d="M1232.28 729.487C1232.37 732.247 1232.45 735.001 1232.54 737.754" stroke="#474319" stroke-width="10" stroke-linecap="round" stroke-linejoin="round"/>
<path d="M1213.72 727.806C1214.41 733.043 1214.28 738.37 1214.17 743.643" stroke="#474319" stroke-width="10" stroke-linecap="round" stroke-linejoin="round"/>
<path d="M1196.69 732.88C1196.03 735.604 1196.86 738.389 1196.94 741.142" stroke="#474319" stroke-width="10" stroke-linecap="round" stroke-linejoin="round"/>
<path d="M1235.13 703.076C1213.47 705.441 1217.24 698.714 1235.09 689.972" stroke="#474319" stroke-width="10" stroke-linecap="round" stroke-linejoin="round"/>
<path d="M1196.14 707.386C1213.51 697.704 1210.16 701.387 1195.44 693.643" stroke="#474319" stroke-width="10" stroke-linecap="round" stroke-linejoin="round"/>
<path d="M1214.96 675.214C1223.89 673.862 1214.72 665.012 1207.86 675.296" stroke="#474319" stroke-width="10" stroke-linecap="round" stroke-linejoin="round"/>
<path d="M1215.2 658.033C1221.07 654.782 1224.32 655.634 1229.07 658.68" stroke="#474319" stroke-width="10" stroke-linecap="round" stroke-linejoin="round"/>
<path d="M1213.33 660.18C1207.75 652.977 1200.32 656.408 1194.84 661.941" stroke="#474319" stroke-width="10" stroke-linecap="round" stroke-linejoin="round"/>
<path d="M1262.49 683.115C1269.16 682.564 1280.28 683.596 1284.66 683.766" stroke="#474319" stroke-width="10" stroke-linecap="round" stroke-linejoin="round"/>
<path d="M1259.83 669.702C1268.2 668.5 1275.41 665.929 1281.9 662.079" stroke="#474319" stroke-width="10" stroke-linecap="round" stroke-linejoin="round"/>
<path d="M1144.91 703.428C1153.74 701.622 1160.92 698.706 1167.46 693.54" stroke="#474319" stroke-width="10" stroke-linecap="round" stroke-linejoin="round"/>
<path d="M1143.03 677.836C1150.41 679.042 1157.67 678.512 1165.13 677.802" stroke="#474319" stroke-width="10" stroke-linecap="round" stroke-linejoin="round"/>
</g>
<defs>
<clipPath id="clip0_1007_409">
<rect width="400" height="300" fill="white" transform="translate(63.2068 55) rotate(31.827)"/>
</clipPath>
<clipPath id="clip1_1007_409">
<rect width="400" height="300" fill="white" transform="translate(379.681 777.921) rotate(-32.7416)"/>
</clipPath>
<clipPath id="clip2_1007_409">
<rect width="520" height="390" fill="white" transform="translate(950 82.5308) rotate(-9.13221)"/>
</clipPath>
<clipPath id="clip3_1007_409">
<rect width="160" height="120" fill="white" transform="translate(477.854 301.907) rotate(-113.912)"/>
</clipPath>
<clipPath id="clip4_1007_409">
<rect width="160" height="120" fill="white" transform="translate(840.5 384.513) rotate(125.4)"/>
</clipPath>
<clipPath id="clip5_1007_409">
<rect width="160" height="120" fill="white" transform="translate(211.367 597.811) rotate(64.1513)"/>
</clipPath>
<clipPath id="clip6_1007_409">
<rect width="160" height="120" fill="white" transform="translate(1299.66 754.459) rotate(174.559)"/>
</clipPath>
</defs>
</svg>
