<svg width="100" height="100" viewBox="0 0 100 100" fill="none" xmlns="http://www.w3.org/2000/svg">
<path d="M100 50C100 77.6142 77.6142 100 50 100C22.3858 100 0 77.6142 0 50C0 22.3858 22.3858 0 50 0C77.6142 0 100 22.3858 100 50Z" fill="white"/>
<path d="M73.3333 76.25V70.4167C73.3333 67.3225 72.1041 64.355 69.9162 62.1671C67.7283 59.9792 64.7608 58.75 61.6666 58.75H38.3333C35.2391 58.75 32.2716 59.9792 30.0837 62.1671C27.8958 64.355 26.6666 67.3225 26.6666 70.4167V76.25M61.6666 35.4167C61.6666 41.86 56.4433 47.0833 50 47.0833C43.5566 47.0833 38.3333 41.86 38.3333 35.4167C38.3333 28.9733 43.5566 23.75 50 23.75C56.4433 23.75 61.6666 28.9733 61.6666 35.4167Z" stroke="#474319" stroke-width="4" stroke-linecap="round" stroke-linejoin="round"/>
</svg>
