<svg width="60" height="60" viewBox="0 0 60 60" fill="none" xmlns="http://www.w3.org/2000/svg">
<circle cx="30" cy="30" r="30" fill="#B1A73F"/>
<path d="M24.9999 41.6667C16.6666 44.1667 16.6666 37.5 13.3333 36.6667M36.6666 46.6667V40.2167C36.7291 39.4219 36.6217 38.623 36.3516 37.873C36.0815 37.123 35.6548 36.439 35.0999 35.8667C40.3333 35.2833 45.8333 33.3 45.8333 24.2C45.8328 21.873 44.9377 19.6353 43.3333 17.95C44.093 15.9142 44.0393 13.6639 43.1833 11.6667C43.1833 11.6667 41.2166 11.0833 36.6666 14.1333C32.8466 13.098 28.8199 13.098 24.9999 14.1333C20.4499 11.0833 18.4833 11.6667 18.4833 11.6667C17.6272 13.6639 17.5735 15.9142 18.3333 17.95C16.7168 19.6478 15.8208 21.9058 15.8333 24.25C15.8333 33.2833 21.3333 35.2667 26.5666 35.9167C26.0182 36.4833 25.5954 37.159 25.3254 37.8999C25.0555 38.6407 24.9446 39.4301 24.9999 40.2167V46.6667" stroke="white" stroke-width="4" stroke-linecap="round" stroke-linejoin="round"/>
</svg>
