<svg width="60" height="60" viewBox="0 0 60 60" fill="none" xmlns="http://www.w3.org/2000/svg">
<circle cx="30" cy="30" r="30" fill="#B1A73F"/>
<path d="M47.75 33.9833L30 46.8833L12.25 33.9833C12.012 33.8083 11.8355 33.5625 11.7457 33.2811C11.6559 32.9998 11.6574 32.6972 11.75 32.4167L13.7833 26.1167L17.85 13.6C17.8894 13.498 17.9522 13.4067 18.0333 13.3333C18.1654 13.2127 18.3378 13.1458 18.5167 13.1458C18.6955 13.1458 18.8679 13.2127 19 13.3333C19.0856 13.4161 19.1487 13.5194 19.1833 13.6333L23.25 26.1167H36.75L40.8167 13.6C40.8561 13.498 40.9189 13.4067 41 13.3333C41.1321 13.2127 41.3045 13.1458 41.4833 13.1458C41.6622 13.1458 41.8346 13.2127 41.9667 13.3333C42.0523 13.4161 42.1154 13.5194 42.15 13.6333L46.2167 26.15L48.3333 32.4167C48.4175 32.7058 48.4063 33.0144 48.3012 33.2966C48.1961 33.5788 48.0028 33.8197 47.75 33.9833Z" stroke="white" stroke-width="4" stroke-linecap="round" stroke-linejoin="round"/>
</svg>
