<svg width="30" height="30" viewBox="0 0 30 30" fill="none" xmlns="http://www.w3.org/2000/svg">
<rect width="30" height="30" fill="#474319"/>
<path d="M26.0497 5.76252C25.4112 5.12378 24.6532 4.61708 23.8189 4.27138C22.9845 3.92568 22.0903 3.74774 21.1872 3.74774C20.2841 3.74774 19.3898 3.92568 18.5555 4.27138C17.7211 4.61708 16.9631 5.12378 16.3247 5.76252L14.9997 7.08752L13.6747 5.76252C12.385 4.47291 10.636 3.74841 8.81216 3.74841C6.98837 3.74841 5.23928 4.47291 3.94966 5.76252C2.66005 7.05214 1.93555 8.80123 1.93555 10.625C1.93555 12.4488 2.66005 14.1979 3.94966 15.4875L14.9997 26.5375L26.0497 15.4875C26.6884 14.8491 27.1951 14.091 27.5408 13.2567C27.8865 12.4224 28.0644 11.5281 28.0644 10.625C28.0644 9.72191 27.8865 8.82765 27.5408 7.99333C27.1951 7.15901 26.6884 6.40097 26.0497 5.76252Z" stroke="white" stroke-width="2" stroke-linecap="round" stroke-linejoin="round"/>
</svg>
