<svg width="60" height="60" viewBox="0 0 60 60" fill="none" xmlns="http://www.w3.org/2000/svg">
<circle cx="30" cy="30" r="30" fill="#B1A73F"/>
<g clip-path="url(#clip0_158_182)">
<path d="M34.0933 39.0683C36.365 38.5417 38.37 37.685 40.1717 36.5383L40.0933 36.585C40.9233 36.0367 41.4633 35.1067 41.4633 34.0517C41.4633 32.38 40.1083 31.025 38.4367 31.025C37.8567 31.025 37.315 31.1883 36.855 31.47L36.8683 31.4617C34.895 32.7133 32.4933 33.455 29.9183 33.455C27.3433 33.455 24.94 32.7117 22.915 31.43L22.9683 31.4617C22.5117 31.17 21.955 30.9967 21.3567 30.9967C20.2867 30.9967 19.3467 31.5533 18.8083 32.3917L18.8017 32.4033C18.8017 32.4033 18.8017 32.4033 18.8017 32.4117C18.51 32.8683 18.3367 33.425 18.3367 34.0233C18.3367 35.095 18.895 36.035 19.735 36.5717L19.7467 36.5783C21.47 37.68 23.475 38.535 25.6167 39.0333L25.7467 39.0583L19.965 44.8333C19.4117 45.3783 19.0683 46.135 19.0683 46.9733C19.0683 47.7883 19.3933 48.5267 19.9183 49.0667L19.9683 49.1167C20.5117 49.6617 21.2633 49.9983 22.0933 49.9983C22.9233 49.9983 23.675 49.6617 24.2183 49.1167L29.92 43.4433L35.5867 49.12C36.1333 49.6667 36.89 50.0067 37.725 50.0067C39.395 50.0067 40.7483 48.6533 40.7483 46.9833C40.7483 46.1483 40.41 45.3933 39.8633 44.845L34.0933 39.0683ZM29.9183 30.6483C35.615 30.6433 40.2317 26.0233 40.2317 20.325C40.2317 14.6233 35.61 10.0017 29.9083 10.0017C24.2067 10.0017 19.585 14.6233 19.585 20.325V20.335C19.5967 26.0333 24.2183 30.6483 29.9183 30.6483ZM29.9183 16.0517C32.28 16.0517 34.1933 17.965 34.1933 20.3267C34.1933 22.6883 32.28 24.6017 29.9183 24.6017C27.56 24.6017 25.6467 22.6917 25.6433 20.3333C25.6433 20.3317 25.6433 20.3317 25.6433 20.33C25.6433 17.9683 27.5567 16.0533 29.9183 16.0517Z" fill="white"/>
</g>
<defs>
<clipPath id="clip0_158_182">
<rect width="40" height="40" fill="white" transform="translate(10 10)"/>
</clipPath>
</defs>
</svg>
