<svg width="60" height="60" viewBox="0 0 60 60" fill="none" xmlns="http://www.w3.org/2000/svg">
<circle cx="30" cy="30" r="30" fill="#B1A73F"/>
<mask id="mask0_158_144" style="mask-type:luminance" maskUnits="userSpaceOnUse" x="10" y="9" width="40" height="40">
<path d="M30 9.5C40.7696 9.5 49.5 18.2304 49.5 29C49.5 39.7696 40.7696 48.5 30 48.5C19.2304 48.5 10.5 39.7696 10.5 29C10.5 18.2304 19.2304 9.5 30 9.5Z" fill="white" stroke="white"/>
</mask>
<g mask="url(#mask0_158_144)">
<path d="M22.3906 28.0868V28.5868H22.8906H34.208V28.5886H34.708C35.0711 28.5886 35.4008 28.5653 35.683 28.5072C35.9589 28.4503 36.235 28.3512 36.4478 28.1655L36.4478 28.1655C36.8464 27.8178 37.0092 27.2525 37.0092 26.5891V24.91C37.0092 24.2719 36.8439 23.7096 36.4478 23.3641L36.4478 23.3641C36.2438 23.1862 35.9777 23.0772 35.698 23.0106C35.4131 22.9427 35.0796 22.9105 34.708 22.9105H22.8906H22.3906V23.4105V28.0868ZM35.5188 19.5018H35.7466C36.71 19.5171 37.4849 19.6296 38.1001 19.8078C38.7444 20.0241 39.2757 20.3421 39.7563 20.7941C40.2124 21.278 40.527 21.808 40.7119 22.4142L41.1901 22.2684L40.7119 22.4143C40.9034 23.0422 41.021 23.8895 41.021 24.9962V26.4957C41.021 28.3794 40.6924 29.6872 40.1272 30.4579C39.829 30.8647 39.5151 31.1712 39.0869 31.4102C38.652 31.653 38.0705 31.842 37.2161 31.9686L36.3923 32.0907L36.8873 32.7605L41.13 38.5H36.7753L32.5414 32.2144L32.3928 31.9938H32.1267H22.8906H22.3906V32.4938V38.5H18.3789V19.5018H35.5188Z" fill="white" stroke="white"/>
<path d="M43.6974 21.5038L43.6973 21.5036C43.3601 20.3988 42.7821 19.4494 42.0123 18.6372L42.0122 18.6372L41.9722 18.595L41.9631 18.5853L41.9534 18.5762L41.9113 18.5363L41.9109 18.5358C41.0898 17.7592 40.1564 17.2037 39.0792 16.8441L39.079 16.844L39.0402 16.8311L39.0312 16.8281L39.0221 16.8254L38.9828 16.814L38.9827 16.8139C37.9655 16.5174 36.8072 16.3788 35.5186 16.3788H33.3974H32.8974V16.3806H31.945C31.0136 14.1046 30.5 11.6129 30.5 9.00001C30.5 -1.76956 39.2304 -10.5 50 -10.5C60.7696 -10.5 69.5 -1.76956 69.5 9.00001C69.5 19.7696 60.7696 28.5 50 28.5C47.9458 28.5 45.9668 28.1825 44.1085 27.5943C44.1316 27.231 44.1421 26.8639 44.1421 26.4957V24.9962C44.1421 23.6912 44.0061 22.5165 43.6974 21.5038Z" fill="white" stroke="white"/>
<path d="M49.6969 29C49.6969 18.1217 40.8783 9.30304 29.9999 9.30304C19.1216 9.30304 10.303 18.1217 10.303 29C10.303 39.8783 19.1216 48.697 29.9999 48.697C40.8783 48.697 49.6969 39.8783 49.6969 29Z" stroke="white" stroke-width="2"/>
</g>
</svg>
