<svg width="42" height="42" viewBox="0 0 42 42" fill="none" xmlns="http://www.w3.org/2000/svg">
<path d="M21.0003 26.0001C23.7617 26.0001 26.0003 23.7615 26.0003 21.0001C26.0003 18.2387 23.7617 16.0001 21.0003 16.0001C18.2389 16.0001 16.0003 18.2387 16.0003 21.0001C16.0003 23.7615 18.2389 26.0001 21.0003 26.0001Z" stroke="white" stroke-width="4" stroke-linecap="round" stroke-linejoin="round"/>
<path d="M33.3337 26.0001C33.1118 26.5028 33.0456 27.0604 33.1436 27.6011C33.2417 28.1417 33.4994 28.6406 33.8837 29.0334L33.9837 29.1334C34.2936 29.443 34.5394 29.8106 34.7072 30.2153C34.8749 30.6199 34.9613 31.0537 34.9613 31.4917C34.9613 31.9298 34.8749 32.3636 34.7072 32.7682C34.5394 33.1729 34.2936 33.5405 33.9837 33.8501C33.6741 34.16 33.3065 34.4059 32.9018 34.5736C32.4971 34.7414 32.0634 34.8277 31.6253 34.8277C31.1873 34.8277 30.7535 34.7414 30.3489 34.5736C29.9442 34.4059 29.5766 34.16 29.267 33.8501L29.167 33.7501C28.7742 33.3658 28.2753 33.1081 27.7346 33.0101C27.194 32.912 26.6363 32.9782 26.1337 33.2001C25.6407 33.4113 25.2203 33.7622 24.9242 34.2093C24.628 34.6565 24.4691 35.1804 24.467 35.7167V36.0001C24.467 36.8841 24.1158 37.732 23.4907 38.3571C22.8656 38.9822 22.0177 39.3334 21.1337 39.3334C20.2496 39.3334 19.4018 38.9822 18.7766 38.3571C18.1515 37.732 17.8003 36.8841 17.8003 36.0001V35.8501C17.7874 35.2984 17.6089 34.7634 17.2878 34.3146C16.9668 33.8658 16.5182 33.5239 16.0003 33.3334C15.4976 33.1116 14.94 33.0454 14.3993 33.1434C13.8587 33.2414 13.3598 33.4992 12.967 33.8834L12.867 33.9834C12.5574 34.2933 12.1898 34.5392 11.7851 34.7069C11.3805 34.8747 10.9467 34.961 10.5087 34.961C10.0706 34.961 9.63685 34.8747 9.23219 34.7069C8.82753 34.5392 8.4599 34.2933 8.15032 33.9834C7.8404 33.6738 7.59454 33.3062 7.42679 32.9015C7.25904 32.4969 7.1727 32.0631 7.1727 31.6251C7.1727 31.187 7.25904 30.7533 7.42679 30.3486C7.59454 29.944 7.8404 29.5763 8.15032 29.2667L8.25032 29.1667C8.63455 28.7739 8.8923 28.2751 8.99033 27.7344C9.08836 27.1937 9.02218 26.6361 8.80032 26.1334C8.58905 25.6405 8.23825 25.2201 7.7911 24.9239C7.34395 24.6278 6.81997 24.4689 6.28366 24.4667H6.00033C5.11627 24.4667 4.26842 24.1156 3.6433 23.4904C3.01818 22.8653 2.66699 22.0175 2.66699 21.1334C2.66699 20.2494 3.01818 19.4015 3.6433 18.7764C4.26842 18.1513 5.11627 17.8001 6.00033 17.8001H6.15033C6.70198 17.7872 7.237 17.6086 7.68582 17.2876C8.13465 16.9666 8.47652 16.518 8.66699 16.0001C8.88885 15.4974 8.95503 14.9398 8.857 14.3991C8.75897 13.8584 8.50122 13.3595 8.11699 12.9667L8.01699 12.8667C7.70707 12.5572 7.46121 12.1895 7.29346 11.7849C7.12571 11.3802 7.03937 10.9465 7.03937 10.5084C7.03937 10.0704 7.12571 9.63661 7.29346 9.23195C7.46121 8.82729 7.70707 8.45966 8.01699 8.15008C8.32657 7.84016 8.6942 7.5943 9.09886 7.42655C9.50352 7.2588 9.93727 7.17246 10.3753 7.17246C10.8134 7.17246 11.2471 7.2588 11.6518 7.42655C12.0565 7.5943 12.4241 7.84016 12.7337 8.15008L12.8337 8.25008C13.2265 8.63431 13.7254 8.89206 14.266 8.99009C14.8067 9.08812 15.3643 9.02194 15.867 8.80008H16.0003C16.4933 8.58881 16.9137 8.23801 17.2098 7.79086C17.5059 7.34371 17.6649 6.81973 17.667 6.28341V6.00008C17.667 5.11603 18.0182 4.26818 18.6433 3.64306C19.2684 3.01794 20.1163 2.66675 21.0003 2.66675C21.8844 2.66675 22.7322 3.01794 23.3573 3.64306C23.9825 4.26818 24.3337 5.11603 24.3337 6.00008V6.15008C24.3358 6.68639 24.4947 7.21037 24.7908 7.65752C25.087 8.10467 25.5074 8.45548 26.0003 8.66675C26.503 8.88861 27.0606 8.95479 27.6013 8.85675C28.142 8.75872 28.6409 8.50098 29.0337 8.11675L29.1337 8.01675C29.4432 7.70683 29.8109 7.46096 30.2155 7.29322C30.6202 7.12547 31.0539 7.03913 31.492 7.03913C31.93 7.03913 32.3638 7.12547 32.7685 7.29322C33.1731 7.46096 33.5407 7.70683 33.8503 8.01675C34.1602 8.32632 34.4061 8.69395 34.5739 9.09861C34.7416 9.50327 34.8279 9.93703 34.8279 10.3751C34.8279 10.8131 34.7416 11.2469 34.5739 11.6515C34.4061 12.0562 34.1602 12.4238 33.8503 12.7334L33.7503 12.8334C33.3661 13.2262 33.1083 13.7251 33.0103 14.2658C32.9123 14.8064 32.9785 15.3641 33.2003 15.8667V16.0001C33.4116 16.493 33.7624 16.9134 34.2095 17.2096C34.6567 17.5057 35.1807 17.6646 35.717 17.6667H36.0003C36.8844 17.6667 37.7322 18.0179 38.3573 18.6431C38.9825 19.2682 39.3337 20.116 39.3337 21.0001C39.3337 21.8841 38.9825 22.732 38.3573 23.3571C37.7322 23.9822 36.8844 24.3334 36.0003 24.3334H35.8503C35.314 24.3356 34.79 24.4945 34.3429 24.7906C33.8957 25.0867 33.5449 25.5071 33.3337 26.0001Z" stroke="white" stroke-width="4" stroke-linecap="round" stroke-linejoin="round"/>
</svg>
