<svg width="200" height="200" viewBox="0 0 200 200" fill="none" xmlns="http://www.w3.org/2000/svg">
<path d="M200 100C200 155.228 155.228 200 100 200C44.7715 200 0 155.228 0 100C0 44.7715 44.7715 0 100 0C155.228 0 200 44.7715 200 100Z" fill="#EFEDD9"/>
<path d="M63.136 133.008C62.5387 125.157 62.496 115.173 63.008 103.056C63.776 84.88 64.16 75.1947 64.16 74C64.16 73.488 64.032 71.952 63.776 69.392C63.52 66.4907 63.4347 64.144 63.52 62.352C63.6907 54.416 66.5493 49.5093 72.096 47.632C73.5467 47.12 75.936 46.8213 79.264 46.736C81.568 46.6507 84.512 46.6507 88.096 46.736C89.2907 46.8213 90.912 46.9067 92.96 46.992C95.0933 47.0773 97.0987 47.1627 98.976 47.248C100.853 47.248 102.091 47.248 102.688 47.248H105.248C106.613 47.248 108.363 47.2053 110.496 47.12C112.629 47.12 114.549 47.12 116.256 47.12C119.84 47.0347 122.699 47.0347 124.832 47.12C126.197 47.12 127.307 47.1627 128.16 47.248C128.672 47.3333 129.141 47.4187 129.568 47.504C130.763 47.76 131.787 48.1867 132.64 48.784C134.347 50.2347 135.541 52.4533 136.224 55.44C136.565 57.1467 136.821 59.2373 136.992 61.712V70.8C136.992 77.712 136.949 88.08 136.864 101.904C136.779 115.813 136.736 125.968 136.736 132.368C136.736 134.331 136.139 135.824 134.944 136.848C133.749 137.787 132.384 138.256 130.848 138.256C129.312 138.256 127.947 137.787 126.752 136.848C125.557 135.824 124.96 134.331 124.96 132.368C124.96 125.968 125.003 115.813 125.088 101.904C125.173 88.08 125.216 77.712 125.216 70.8C125.216 70.6293 125.216 70.032 125.216 69.008C125.216 67.8987 125.216 66.7467 125.216 65.552C125.301 64.272 125.301 63.2053 125.216 62.352C125.216 60.9867 125.131 59.8347 124.96 58.896L124.576 58.768H116.384C115.104 58.768 113.44 58.8107 111.392 58.896C109.429 58.896 107.595 58.9387 105.888 59.024C104.181 59.024 103.115 59.024 102.688 59.024C101.749 59.024 99.488 58.9387 95.904 58.768C92.2347 58.5973 89.504 58.512 87.712 58.512C84.384 58.4267 81.696 58.384 79.648 58.384C77.9413 58.4693 76.704 58.5547 75.936 58.64C75.5093 59.152 75.2533 60.4747 75.168 62.608C75.168 63.9733 75.296 65.8933 75.552 68.368C75.808 71.2693 75.936 73.1467 75.936 74C75.936 76.304 75.552 86.16 74.784 103.568C74.272 115.173 74.3147 124.645 74.912 131.984C74.9973 133.947 74.4853 135.44 73.376 136.464C72.2667 137.488 70.944 138.085 69.408 138.256C67.9573 138.427 66.592 138.085 65.312 137.232C64.032 136.293 63.3067 134.885 63.136 133.008Z" fill="#353232"/>
</svg>
