<svg width="60" height="60" viewBox="0 0 60 60" fill="none" xmlns="http://www.w3.org/2000/svg">
<circle cx="30" cy="30" r="30" fill="#B1A73F"/>
<path d="M32.8287 29.6875C32.2037 29.4525 32.2037 28.555 32.1649 27.93C32.0087 25.7038 32.7899 22.305 31.8524 20.86C31.1887 20 27.9849 20.0788 26.0324 20.1963C25.4849 20.275 24.8212 20.3913 24.3524 20.6263C23.8837 20.8613 23.4149 21.2513 23.4149 21.6025C23.4149 22.11 24.5874 22.0325 25.0162 22.6963C25.4849 23.4 25.4849 24.9225 25.4849 26.1725C25.4849 27.6175 25.2499 29.5325 24.6649 29.61C23.7662 29.6488 23.2587 28.75 22.7899 28.0863C21.8524 26.7975 20.9149 25.195 20.2112 23.6325C19.8599 22.8125 19.6637 21.9138 19.1562 21.5625C18.3749 21.015 16.9687 20.9763 15.6012 21.015C14.3512 21.0538 12.5537 20.8975 12.2024 21.64C11.9287 22.46 12.5149 23.2413 12.8274 23.9063C14.4287 27.3825 16.1474 30.43 18.2574 33.32C20.2112 36.015 22.0462 38.1638 25.6399 39.2963C26.6562 39.6088 31.1087 40.5075 32.0074 39.2963C32.3199 38.8275 32.2424 37.7725 32.3987 36.9913C32.5549 36.21 32.7499 35.4288 33.4924 35.39C34.1174 35.3513 34.4687 35.8975 34.8599 36.2888C35.2899 36.7188 35.6412 37.07 35.9537 37.4613C36.6962 38.2038 37.4774 39.2188 38.4149 39.61C39.7037 40.1575 41.6962 40.0013 43.5712 39.9225C45.0949 39.8838 46.1887 39.5713 46.3062 38.6725C46.3849 37.9688 45.6024 36.9538 45.1337 36.3675C43.9612 34.9225 43.4149 34.4925 42.0862 33.1638C41.4999 32.5775 40.7574 31.9525 40.7574 31.25C40.7187 30.82 41.0699 30.43 41.3824 30C42.7499 27.9688 44.1174 26.5238 45.3674 24.4138C45.7187 23.7888 46.5399 22.3438 46.2274 21.64C45.8762 20.8588 43.9224 21.0925 42.7112 21.0925C41.1487 21.0925 39.1174 20.975 38.7262 21.2875C37.9837 21.795 37.6712 22.6163 37.3199 23.3975C36.5387 25.195 35.4837 27.03 34.3899 28.3975C33.9987 28.8663 33.2574 29.8425 32.8274 29.6863L32.8287 29.6875Z" fill="white"/>
</svg>
